# xmcd
#
# Track frame offsets:
# 150
# 11091
# 25229
# 38098
# 50424
# 64049
# 79414
# 88264
# 114030
# 127680
# 140118
# 152988
# 166209
# 179025
# 190749
# 200963
#
# Disc length: 2844 seconds
#
#
# Revision: 0
# Processed by: cddbd v1.5.1PL0 Copyright (c) Steve Scherf et al.
# Submitted via: FreeRIP 2.80 
#
DISCID=de0b1a10
DTITLE=Various Artist - Blues Harmnica by Chico Blues
DYEAR=1900
DGENRE=Blues
TTITLE0=Jimmy Red - Baby What You Want Me To Do - F Major
TTITLE1=Walter Jacobs - Blues With a Feeling - A Major
TTITLE2=Little Walter - Boom Boom - E Major
TTITLE3=Jimmy Red - Brigth Lights - A Major
TTITLE4=Walter Jacobs - Can´t Hold Out Much Longer - G Major
TTITLE5=Sonny Boy Willianson - Cross My Heart - C Major
TTITLE6=Sonny Boy Willianson - Checkin Up On My Baby - A Major
TTITLE7=Ellas McDaniel - I´m A Man - G Major
TTITLE8=John Brim - Ice Cream Man - A Major
TTITLE9=Walter Jacobs - The Juke - E Major
TTITLE10=Sonny Boy Willianson - Keep It To Yourself - A Major
TTITLE11=Walte Jacobs - Mean Old World - F Major
TTITLE12=Jimmy Red - Off The Wall - G Major
TTITLE13=Howling Wolf - Sitting On Top Of The World - F Maj
TTITLE14=Howling Wolf - Smokestak Lightning - G Maj
TTITLE15=Jimmy Rogers - Walking By Myself - A Maj
EXTD=
EXTT0=
EXTT1=
EXTT2=
EXTT3=
EXTT4=
EXTT5=
EXTT6=
EXTT7=
EXTT8=
EXTT9=
EXTT10=
EXTT11=
EXTT12=
EXTT13=
EXTT14=
EXTT15=
PLAYORDER=
